<?xml version="1.0" encoding="UTF-8"?>
<svg width="74px" height="74px" viewBox="0 0 74 74" version="1.1" xmlns="http://www.w3.org/2000/svg" xmlns:xlink="http://www.w3.org/1999/xlink">
    <!-- Generator: Sketch 62 (91390) - https://sketch.com -->
    <title>noun_career_1264034</title>
    <desc>Created with Sketch.</desc>
    <g id="Page-1" stroke="none" stroke-width="1" fill="none" fill-rule="evenodd">
        <g id="Desktop-HD" transform="translate(-1064.000000, -1345.000000)" fill="#000000" fill-rule="nonzero">
            <g id="noun_career_1264034" transform="translate(1064.000000, 1345.000000)">
                <g id="Group">
                    <rect id="Rectangle" x="5.76923077" y="58.96875" width="2.30769231" height="2.3125"></rect>
                    <path d="M50.6423077,53.8234375 C50.5199851,53.579772 50.3156379,53.3872854 50.0653846,53.28 L42.4153846,49.9615625 L41.7923077,48.030625 C43.9525638,46.1293221 45.132873,43.3468388 45,40.46875 L45,31.21875 C45.0017732,30.9114153 44.8813691,30.6160186 44.6653846,30.3978125 C42.5087817,28.5708565 39.7443155,27.6254293 36.9230769,27.75 C34.1018384,27.6254293 31.3373721,28.5708565 29.1807692,30.3978125 C28.9647848,30.6160186 28.8443807,30.9114153 28.8461538,31.21875 L28.8461538,40.46875 C28.7104012,43.3449448 29.8863297,46.1271089 32.0423077,48.030625 L31.4192308,49.9615625 L23.7692308,53.28 C23.5189774,53.3872854 23.3146303,53.579772 23.1923077,53.8234375 L22.0384615,56.1359375 C21.9600882,56.2980036 21.920577,56.4761746 21.9229653,56.65625 L21.9229653,74 L24.2307692,74 L24.2307692,56.93375 L25.0730769,55.245625 L31.9961538,52.2278125 L35.7692308,55.9740625 L35.7692308,62.4375 L38.0769231,62.4375 L38.0769231,55.9740625 L41.8269231,52.21625 L48.75,55.2340625 L49.6153846,56.93375 L49.6153846,74 L51.9230769,74 L51.9230769,56.65625 C51.9219939,56.475248 51.8785198,56.2970289 51.7961538,56.1359375 L50.6423077,53.8234375 Z M31.1538462,31.7621875 C32.8449377,30.5896151 34.8677699,29.9936634 36.9230769,30.0625 C38.978384,29.9936634 41.0012161,30.5896151 42.6923077,31.7621875 L42.6923077,36.838125 C42.1153846,36.6878125 41.5384615,36.39875 41.5384615,35.84375 C41.5384615,35.2051708 41.021867,34.6875 40.3846154,34.6875 L33.4615385,34.6875 C32.8242868,34.6875 32.3076923,35.2051708 32.3076923,35.84375 C32.3076923,36.3871875 31.7307692,36.67625 31.1538462,36.838125 L31.1538462,31.7621875 Z M36.9230769,53.8696875 L33.6461538,50.5859375 L34.0846154,49.21 C35.9076831,49.8925762 37.9153939,49.8925762 39.7384615,49.21 L40.1769231,50.5859375 L36.9230769,53.8696875 Z M36.9230769,47.40625 C32.6653846,47.40625 31.1538462,43.6715625 31.1538462,40.46875 L31.1538462,39.2084375 C32.5430601,39.0757799 33.7693005,38.2435109 34.4076923,37 L39.4384615,37 C40.0768533,38.2435109 41.3030937,39.0757799 42.6923077,39.2084375 L42.6923077,40.46875 C42.6923077,43.6715625 41.1807692,47.40625 36.9230769,47.40625 Z" id="Shape"></path>
                    <rect id="Rectangle" x="27.6923077" y="67.0625" width="2.30769231" height="6.9375"></rect>
                    <rect id="Rectangle" x="43.8461538" y="67.0625" width="2.30769231" height="6.9375"></rect>
                    <path d="M24.2307692,19.65625 L28.8461538,19.65625 L28.8461538,24.28125 L31.1538462,24.28125 L31.1538462,18.5 C31.1538462,17.8614208 30.6372516,17.34375 30,17.34375 L26.5384615,17.34375 L36.9230769,3.1103125 L47.3076923,17.34375 L43.8461538,17.34375 C43.2089022,17.34375 42.6923077,17.8614208 42.6923077,18.5 L42.6923077,24.28125 L45,24.28125 L45,19.65625 L49.6153846,19.65625 C50.0503838,19.657383 50.4490482,19.4132658 50.6465062,19.0248556 C50.8439642,18.6364454 50.8066518,18.169764 50.55,17.8178125 L37.8576923,0.4740625 C37.6402061,0.178345985 37.2954321,0.00378649889 36.9288462,0.00378649889 C36.5622602,0.00378649889 36.2174862,0.178345985 36,0.4740625 L23.3076923,17.8178125 C23.0522493,18.1680846 23.0139704,18.6321728 23.2085569,19.019719 C23.4031433,19.4072652 23.7978468,19.6530468 24.2307692,19.65625 Z" id="Path"></path>
                    <path d="M73.6269231,34.0053125 L60.9346154,16.6615625 C60.7171292,16.365846 60.3723552,16.1912865 60.0057692,16.1912865 C59.6391832,16.1912865 59.2944093,16.365846 59.0769231,16.6615625 L46.3846154,34.0053125 C46.1291724,34.3555846 46.0908935,34.8196728 46.2854799,35.207219 C46.4800663,35.5947652 46.8747698,35.8405468 47.3076923,35.84375 L51.9230769,35.84375 L51.9230769,43.9375 L54.2307692,43.9375 L54.2307692,34.6875 C54.2307692,34.0489208 53.7141747,33.53125 53.0769231,33.53125 L49.6153846,33.53125 L60,19.2978125 L70.3846154,33.53125 L60,33.53125 L60,35.84375 L65.7692308,35.84375 L65.7692308,56.65625 L68.0769231,56.65625 L68.0769231,35.84375 L72.6923077,35.84375 C73.1273068,35.844883 73.5259713,35.6007658 73.7234293,35.2123556 C73.9208873,34.8239454 73.8835749,34.357264 73.6269231,34.0053125 Z" id="Path"></path>
                    <path d="M24.2307692,33.53125 L20.7692308,33.53125 C20.1319791,33.53125 19.6153846,34.0489208 19.6153846,34.6875 L19.6153846,43.9375 L21.9230769,43.9375 L21.9230769,35.84375 L26.5384615,35.84375 C26.9734607,35.844883 27.3721251,35.6007658 27.5695831,35.2123556 C27.7670411,34.8239454 27.7297288,34.357264 27.4730769,34.0053125 L14.7807692,16.6615625 C14.563283,16.365846 14.2185091,16.1912865 13.8519231,16.1912865 C13.4853371,16.1912865 13.1405632,16.365846 12.9230769,16.6615625 L0.230769231,34.0053125 C-0.0246737889,34.3555846 -0.0629526345,34.8196728 0.131633778,35.207219 C0.32622019,35.5947652 0.720923685,35.8405468 1.15384615,35.84375 L5.76923077,35.84375 L5.76923077,56.65625 L8.07692308,56.65625 L8.07692308,35.84375 L13.8461538,35.84375 L13.8461538,33.53125 L3.46153846,33.53125 L13.8461538,19.2978125 L24.2307692,33.53125 Z" id="Path"></path>
                    <rect id="Rectangle" x="19.6153846" y="46.25" width="2.30769231" height="2.3125"></rect>
                    <rect id="Rectangle" x="51.9230769" y="46.25" width="2.30769231" height="2.3125"></rect>
                    <rect id="Rectangle" x="65.7692308" y="58.96875" width="2.30769231" height="2.3125"></rect>
                </g>
            </g>
        </g>
    </g>
</svg>