<?xml version="1.0" encoding="UTF-8"?>
<svg width="72px" height="74px" viewBox="0 0 72 74" version="1.1" xmlns="http://www.w3.org/2000/svg" xmlns:xlink="http://www.w3.org/1999/xlink">
    <!-- Generator: Sketch 62 (91390) - https://sketch.com -->
    <title>noun_mentorship_1499440</title>
    <desc>Created with Sketch.</desc>
    <g id="Page-1" stroke="none" stroke-width="1" fill="none" fill-rule="evenodd">
        <g id="Desktop-HD" transform="translate(-664.000000, -1345.000000)" fill="#000000" fill-rule="nonzero">
            <g id="noun_mentorship_1499440" transform="translate(664.000000, 1345.000000)">
                <path d="M59.8285714,31.7511628 C63.5142857,31.7511628 66.5142857,28.7395349 66.5142857,25.0395349 C66.5142857,21.3395349 63.5142857,18.327907 59.8285714,18.327907 C56.1428571,18.327907 53.1428571,21.3395349 53.1428571,25.0395349 C53.1428571,28.7395349 56.1428571,31.7511628 59.8285714,31.7511628 Z M59.8285714,20.9953488 C62.0571429,20.9953488 63.9428571,22.8023256 63.9428571,25.1255814 C63.9428571,27.4488372 62.1428571,29.255814 59.8285714,29.255814 C57.5142857,29.255814 55.7142857,27.2767442 55.7142857,25.0395349 C55.7142857,22.8023256 57.5142857,20.9953488 59.8285714,20.9953488 Z M53.9142857,43.1093023 L57,43.1093023 L57,64.0186047 C57,64.7069767 56.4,65.3093023 55.7142857,65.3093023 C55.0285714,65.3093023 54.4285714,64.7069767 54.4285714,64.0186047 L54.4285714,45.6906977 L53.9142857,45.6906977 C53.2285714,45.6906977 52.6285714,45.0883721 52.6285714,44.4 C52.6285714,43.7116279 53.1428571,43.1093023 53.9142857,43.1093023 Z M65.6571429,45.6906977 L65.1428571,45.6906977 L65.1428571,64.0186047 C65.1428571,64.7069767 64.5428571,65.3093023 63.8571429,65.3093023 C63.1714286,65.3093023 62.5714286,64.7069767 62.5714286,64.0186047 L62.5714286,43.1093023 L65.6571429,43.1093023 C66.3428571,43.1093023 66.9428571,43.7116279 66.9428571,44.4 C66.9428571,45.0883721 66.4285714,45.6906977 65.6571429,45.6906977 Z M12.1714286,31.7511628 C15.8571429,31.7511628 18.8571429,28.7395349 18.8571429,25.0395349 C18.8571429,21.3395349 15.8571429,18.327907 12.1714286,18.327907 C8.48571429,18.327907 5.48571429,21.3395349 5.48571429,25.0395349 C5.48571429,28.7395349 8.57142857,31.7511628 12.1714286,31.7511628 Z M12.1714286,20.9953488 C14.4,20.9953488 16.2857143,22.8023256 16.2857143,25.1255814 C16.2857143,27.4488372 14.4857143,29.255814 12.1714286,29.255814 C9.85714286,29.255814 8.05714286,27.4488372 8.05714286,25.1255814 C8.05714286,22.8023256 9.94285714,20.9953488 12.1714286,20.9953488 Z M6.34285714,43.1093023 L9.42857143,43.1093023 L9.42857143,64.0186047 C9.42857143,64.7069767 8.82857143,65.3093023 8.14285714,65.3093023 C7.45714286,65.3093023 6.85714286,64.7069767 6.85714286,64.0186047 L6.85714286,45.6906977 L6.34285714,45.6906977 C5.65714286,45.6906977 5.05714286,45.0883721 5.05714286,44.4 C5.05714286,43.7116279 5.57142857,43.1093023 6.34285714,43.1093023 Z M18.0857143,45.6906977 L17.5714286,45.6906977 L17.5714286,64.0186047 C17.5714286,64.7069767 16.9714286,65.3093023 16.2857143,65.3093023 C15.6,65.3093023 15,64.7069767 15,64.0186047 L15,43.1093023 L18.0857143,43.1093023 C18.7714286,43.1093023 19.3714286,43.7116279 19.3714286,44.4 C19.3714286,45.0883721 18.8571429,45.6906977 18.0857143,45.6906977 Z M53.9142857,56.6186047 C53.9142857,57.3069767 53.3142857,57.9093023 52.6285714,57.9093023 L47.7428571,57.9093023 L47.7428571,55.672093 L51.8571429,55.672093 L51.8571429,55.327907 L52.6285714,55.327907 C53.3142857,55.327907 53.9142857,55.844186 53.9142857,56.6186047 Z M71.8285714,45.0023256 L71.8285714,57.8232558 L66.9428571,57.8232558 C66.2571429,57.8232558 65.6571429,57.2209302 65.6571429,56.5325581 C65.6571429,55.844186 66.2571429,55.2418605 66.9428571,55.2418605 L69.2571429,55.2418605 L69.2571429,45.0023256 C69.2571429,40.2697674 65.4,36.3116279 60.6,36.3116279 L58.9714286,36.3116279 C55.9714286,36.3116279 53.4,37.7744186 51.8571429,40.0976744 L51.8571429,38.5488372 C51.8571429,37.8604651 51.7714286,37.172093 51.6857143,36.4837209 C53.6571429,34.7627907 56.2285714,33.7302326 58.9714286,33.7302326 L60.6,33.7302326 C66.7714286,33.8162791 71.8285714,38.8069767 71.8285714,45.0023256 Z M20.1428571,55.5860465 L24.2571429,55.5860465 L24.2571429,57.8232558 L19.3714286,57.8232558 C18.6857143,57.8232558 18.0857143,57.2209302 18.0857143,56.5325581 C18.0857143,55.844186 18.6857143,55.2418605 19.3714286,55.2418605 L20.1428571,55.2418605 L20.1428571,55.5860465 L20.1428571,55.5860465 Z M13.0285714,36.3976744 L11.4,36.3976744 C6.68571429,36.3976744 2.74285714,40.2697674 2.74285714,45.0883721 L2.74285714,55.327907 L5.05714286,55.327907 C5.74285714,55.327907 6.34285714,55.9302326 6.34285714,56.6186047 C6.34285714,57.3069767 5.74285714,57.9093023 5.05714286,57.9093023 L0.171428571,57.9093023 L0.171428571,45.0023256 C0.171428571,38.8069767 5.22857143,33.7302326 11.4,33.7302326 L13.0285714,33.7302326 C15.7714286,33.7302326 18.3428571,34.7627907 20.3142857,36.4837209 C20.2285714,37.172093 20.1428571,37.8604651 20.1428571,38.5488372 L20.1428571,40.0976744 C18.6,37.8604651 15.9428571,36.3976744 13.0285714,36.3976744 Z M36,22.4581395 C40.2857143,22.4581395 43.7142857,19.0162791 43.7142857,14.7139535 C43.7142857,10.4116279 40.2857143,6.96976744 36,6.96976744 C31.7142857,6.96976744 28.2857143,10.4116279 28.2857143,14.7139535 C28.2857143,19.0162791 31.7142857,22.4581395 36,22.4581395 Z M36,9.55116279 C38.8285714,9.55116279 41.1428571,11.8744186 41.1428571,14.7139535 C41.1428571,17.5534884 38.8285714,19.8767442 36,19.8767442 C33.1714286,19.8767442 30.8571429,17.5534884 30.8571429,14.7139535 C30.8571429,11.8744186 33.1714286,9.55116279 36,9.55116279 Z M50.1428571,53.8651163 L44.5714286,53.8651163 C43.8857143,53.8651163 43.2857143,53.2627907 43.2857143,52.5744186 C43.2857143,51.8860465 43.8857143,51.2837209 44.5714286,51.2837209 L47.5714286,51.2837209 L47.5714286,38.7209302 C47.5714286,32.8697674 42.7714286,28.0511628 36.9428571,28.0511628 L35.0571429,28.0511628 C29.2285714,28.0511628 24.4285714,32.8697674 24.4285714,38.7209302 L24.4285714,51.2837209 L27.4285714,51.2837209 C28.1142857,51.2837209 28.7142857,51.8860465 28.7142857,52.5744186 C28.7142857,53.2627907 28.1142857,53.8651163 27.4285714,53.8651163 L21.8571429,53.8651163 L21.8571429,38.7209302 C21.8571429,31.4069767 27.7714286,25.4697674 35.0571429,25.4697674 L36.9428571,25.4697674 C44.2285714,25.4697674 50.1428571,31.4069767 50.1428571,38.7209302 L50.1428571,53.8651163 Z M28.9714286,36.655814 L32.4,36.655814 L32.4,72.3651163 C32.4,73.0534884 31.8,73.655814 31.1142857,73.655814 C30.4285714,73.655814 29.8285714,73.0534884 29.8285714,72.3651163 L29.8285714,39.2372093 L28.9714286,39.2372093 C28.2857143,39.2372093 27.6857143,38.6348837 27.6857143,37.9465116 C27.6857143,37.2581395 28.2,36.655814 28.9714286,36.655814 Z M43.0285714,39.2372093 L42.1714286,39.2372093 L42.1714286,72.3651163 C42.1714286,73.0534884 41.5714286,73.655814 40.8857143,73.655814 C40.2,73.655814 39.6,73.0534884 39.6,72.3651163 L39.6,36.655814 L43.0285714,36.655814 C43.7142857,36.655814 44.3142857,37.2581395 44.3142857,37.9465116 C44.3142857,38.6348837 43.8,39.2372093 43.0285714,39.2372093 Z M32.0571429,5.59302326 C31.5428571,5.07674419 31.5428571,4.30232558 32.0571429,3.78604651 L35.0571429,0.774418605 C35.5714286,0.258139535 36.3428571,0.258139535 36.8571429,0.774418605 L39.8571429,3.78604651 C40.3714286,4.30232558 40.3714286,5.07674419 39.8571429,5.59302326 C39.6,5.85116279 39.2571429,5.9372093 38.9142857,5.9372093 C38.5714286,5.9372093 38.2285714,5.85116279 37.9714286,5.59302326 L36,3.44186047 L33.8571429,5.59302326 C33.3428571,6.02325581 32.5714286,6.02325581 32.0571429,5.59302326 Z M45.1714286,16.8651163 L47.3142857,14.7139535 L45.1714286,12.5627907 C44.6571429,12.0465116 44.6571429,11.272093 45.1714286,10.755814 C45.6857143,10.2395349 46.4571429,10.2395349 46.9714286,10.755814 L49.9714286,13.7674419 C50.4857143,14.2837209 50.4857143,15.0581395 49.9714286,15.5744186 L46.9714286,18.5860465 C46.7142857,18.844186 46.3714286,18.9302326 46.0285714,18.9302326 C45.6857143,18.9302326 45.4285714,18.9302326 45.1714286,18.672093 C44.6571429,18.2418605 44.6571429,17.3813953 45.1714286,16.8651163 Z M22.0285714,15.6604651 C21.5142857,15.144186 21.5142857,14.3697674 22.0285714,13.8534884 L25.0285714,10.8418605 C25.5428571,10.3255814 26.3142857,10.3255814 26.8285714,10.8418605 C27.3428571,11.3581395 27.3428571,12.1325581 26.8285714,12.6488372 L24.6857143,14.8 L26.8285714,16.9511628 C27.3428571,17.4674419 27.3428571,18.2418605 26.8285714,18.7581395 C26.5714286,19.0162791 26.2285714,19.1023256 25.8857143,19.1023256 C25.5428571,19.1023256 25.2,19.0162791 24.9428571,18.7581395 L22.0285714,15.6604651 Z" id="Shape"></path>
            </g>
        </g>
    </g>
</svg>